<svg width="154" height="60" viewBox="0 0 154 60" fill="none" xmlns="http://www.w3.org/2000/svg">
<path d="M9.45959 38.2798V21.6076H7.96159C5.21526 21.6076 3.77274 22.9947 3.77274 25.0475C3.77274 27.3777 4.77141 28.4596 6.82422 29.8466L8.51641 30.984L3.63404 38.2798H0L4.38304 31.7607C1.85863 29.9576 0.443851 28.2099 0.443851 25.2417C0.443851 21.5244 3.02374 19 7.93385 19H12.8162V38.2798H9.45959ZM74.1787 38.5572C69.768 38.5572 67.6319 35.9773 67.6319 31.3169C67.6319 27.0726 69.8234 24.0488 74.04 24.0488C75.6768 24.0488 76.8973 24.3262 77.5909 24.7146V27.5164C76.9251 27.1003 75.6768 26.6564 74.4007 26.6564C72.2369 26.6564 71.044 28.2099 71.044 31.2337C71.044 34.1187 72.015 35.9496 74.3729 35.9496C75.76 35.9496 76.7586 35.589 77.5909 35.0064V37.6973C76.7864 38.2798 75.7045 38.5572 74.1787 38.5572ZM53.5396 37.3366C52.5687 38.0024 51.0152 38.5572 48.9069 38.5572C44.6903 38.5572 42.3046 36.1993 42.3046 31.3446C42.3046 27.128 44.2187 24.0488 48.2411 24.0488C51.5423 24.0488 53.6783 25.8797 53.6783 30.7343V32.482H45.7167C45.8554 34.8122 46.7709 35.9496 49.1843 35.9496C50.7933 35.9496 52.5132 35.3393 53.5396 34.6458V37.3366ZM64.0811 38.2798L59.1987 31.5388V38.2798H55.8976V24.3262H59.1987V30.873L63.8592 24.3262H67.1881L62.5276 30.873L67.8261 38.2798H64.0811ZM41.5001 35.6722V41.47H38.4487V38.2798H31.0419V41.47H27.9904V35.6722H29.0168C30.1819 33.342 30.4039 28.9312 30.4039 25.5191V24.3262H40.0299V35.6722H41.5001ZM23.3022 24.3262H26.6034V38.2798H23.3022V32.4543H18.8914V38.2798H15.5903V24.3262H18.8914V29.8466H23.3022V24.3262ZM48.1857 26.6564C46.6045 26.6564 45.8 27.8216 45.7167 30.0408H50.3217V29.7634C50.3217 28.0157 49.8224 26.6564 48.1857 26.6564ZM36.7287 35.6722V26.9339H33.2334V27.35C33.2334 29.7634 32.9837 33.5639 32.0683 35.6722H36.7287Z" fill="#2C4942"/>
<path d="M84.543 35.0896C84.543 35.0896 84.8204 35.3393 85.4862 35.3393C87.0396 35.3393 87.0951 33.2587 87.2061 28.8757L87.4557 19H98.552V38.2798H95.1954V21.6076H90.5904L90.3963 28.8202C90.2298 35.1729 89.786 38.5572 85.93 38.5572C85.0146 38.5572 84.543 38.2798 84.543 38.2798V35.0896ZM101.335 24.3262H104.525V32.9536L109.574 24.3262H112.514V38.2798H109.324V29.6524L104.275 38.2798H101.335V24.3262ZM115.286 38.2798V24.3262H118.587V35.6722H122.86V24.3262H126.161V35.6722H127.631V41.47H124.579V38.2798H115.286ZM139.972 37.3366C139.001 38.0024 137.448 38.5572 135.34 38.5572C131.123 38.5572 128.737 36.1993 128.737 31.3446C128.737 27.128 130.651 24.0488 134.674 24.0488C137.975 24.0488 140.111 25.8797 140.111 30.7343V32.482H132.149C132.288 34.8122 133.204 35.9496 135.617 35.9496C137.226 35.9496 138.946 35.3393 139.972 34.6458V37.3366ZM134.618 26.6564C133.037 26.6564 132.233 27.8216 132.149 30.0408H136.754V29.7634C136.754 28.0157 136.255 26.6564 134.618 26.6564ZM147.954 22.4953C145.291 22.4953 143.932 20.9696 143.932 19H146.706C146.706 19.9432 147.205 20.387 147.954 20.387C148.648 20.387 149.092 19.9154 149.092 19H151.866C151.866 20.9419 150.562 22.4953 147.954 22.4953ZM142.323 24.3262H145.513V32.9536L150.562 24.3262H153.502V38.2798H150.312V29.6524L145.263 38.2798H142.323V24.3262Z" fill="#2C4942"/>
</svg>
